<mxfile host="app.diagrams.net" modified="2024-05-26T17:07:04.620Z" agent="Mozilla/5.0 (Windows NT 10.0; Win64; x64) AppleWebKit/537.36 (KHTML, like Gecko) Chrome/122.0.0.0 YaBrowser/24.4.0.0 Safari/537.36" etag="bVfO0sB431VyE9R3KPxL" version="24.4.8" type="device">
  <diagram name="Страница — 1" id="q_7QoZlZJ9rrJDVDNii5">
    <mxGraphModel dx="1687" dy="902" grid="1" gridSize="10" guides="1" tooltips="1" connect="1" arrows="1" fold="1" page="1" pageScale="1" pageWidth="827" pageHeight="1169" math="0" shadow="0">
      <root>
        <mxCell id="0" />
        <mxCell id="1" parent="0" />
        <mxCell id="CC6myMeuV3GCDBVNzRsW-5" style="edgeStyle=orthogonalEdgeStyle;rounded=0;orthogonalLoop=1;jettySize=auto;html=1;entryX=0;entryY=0.5;entryDx=0;entryDy=0;" edge="1" parent="1" source="CC6myMeuV3GCDBVNzRsW-2" target="CC6myMeuV3GCDBVNzRsW-3">
          <mxGeometry relative="1" as="geometry" />
        </mxCell>
        <mxCell id="CC6myMeuV3GCDBVNzRsW-2" value="Пользователь" style="whiteSpace=wrap;html=1;" vertex="1" parent="1">
          <mxGeometry x="130" y="140" width="120" height="60" as="geometry" />
        </mxCell>
        <mxCell id="CC6myMeuV3GCDBVNzRsW-7" style="edgeStyle=orthogonalEdgeStyle;rounded=0;orthogonalLoop=1;jettySize=auto;html=1;entryX=0.5;entryY=0;entryDx=0;entryDy=0;" edge="1" parent="1" source="CC6myMeuV3GCDBVNzRsW-3" target="CC6myMeuV3GCDBVNzRsW-6">
          <mxGeometry relative="1" as="geometry" />
        </mxCell>
        <mxCell id="CC6myMeuV3GCDBVNzRsW-8" value="Название товара" style="edgeLabel;html=1;align=center;verticalAlign=middle;resizable=0;points=[];" vertex="1" connectable="0" parent="CC6myMeuV3GCDBVNzRsW-7">
          <mxGeometry y="-2" relative="1" as="geometry">
            <mxPoint as="offset" />
          </mxGeometry>
        </mxCell>
        <mxCell id="CC6myMeuV3GCDBVNzRsW-3" value="Страница с товарами" style="whiteSpace=wrap;html=1;" vertex="1" parent="1">
          <mxGeometry x="350" y="140" width="120" height="60" as="geometry" />
        </mxCell>
        <mxCell id="CC6myMeuV3GCDBVNzRsW-10" style="edgeStyle=orthogonalEdgeStyle;rounded=0;orthogonalLoop=1;jettySize=auto;html=1;entryX=0.5;entryY=0;entryDx=0;entryDy=0;" edge="1" parent="1" source="CC6myMeuV3GCDBVNzRsW-6" target="CC6myMeuV3GCDBVNzRsW-9">
          <mxGeometry relative="1" as="geometry" />
        </mxCell>
        <mxCell id="CC6myMeuV3GCDBVNzRsW-11" value="Код товара" style="edgeLabel;html=1;align=center;verticalAlign=middle;resizable=0;points=[];" vertex="1" connectable="0" parent="CC6myMeuV3GCDBVNzRsW-10">
          <mxGeometry x="-0.12" y="2" relative="1" as="geometry">
            <mxPoint as="offset" />
          </mxGeometry>
        </mxCell>
        <mxCell id="CC6myMeuV3GCDBVNzRsW-6" value="Выбор нужного товара" style="rounded=1;whiteSpace=wrap;html=1;" vertex="1" parent="1">
          <mxGeometry x="350" y="260" width="120" height="60" as="geometry" />
        </mxCell>
        <mxCell id="CC6myMeuV3GCDBVNzRsW-20" style="edgeStyle=orthogonalEdgeStyle;rounded=0;orthogonalLoop=1;jettySize=auto;html=1;entryX=0.5;entryY=0;entryDx=0;entryDy=0;" edge="1" parent="1" source="CC6myMeuV3GCDBVNzRsW-9" target="CC6myMeuV3GCDBVNzRsW-19">
          <mxGeometry relative="1" as="geometry" />
        </mxCell>
        <mxCell id="CC6myMeuV3GCDBVNzRsW-21" value="Товар" style="edgeLabel;html=1;align=center;verticalAlign=middle;resizable=0;points=[];" vertex="1" connectable="0" parent="CC6myMeuV3GCDBVNzRsW-20">
          <mxGeometry x="-0.2333" y="-2" relative="1" as="geometry">
            <mxPoint as="offset" />
          </mxGeometry>
        </mxCell>
        <mxCell id="CC6myMeuV3GCDBVNzRsW-9" value="Карточка товара" style="whiteSpace=wrap;html=1;" vertex="1" parent="1">
          <mxGeometry x="350" y="380" width="120" height="60" as="geometry" />
        </mxCell>
        <mxCell id="CC6myMeuV3GCDBVNzRsW-14" style="edgeStyle=orthogonalEdgeStyle;rounded=0;orthogonalLoop=1;jettySize=auto;html=1;entryX=0;entryY=0.5;entryDx=0;entryDy=0;startArrow=classic;startFill=1;" edge="1" parent="1" source="CC6myMeuV3GCDBVNzRsW-13" target="CC6myMeuV3GCDBVNzRsW-9">
          <mxGeometry relative="1" as="geometry" />
        </mxCell>
        <mxCell id="CC6myMeuV3GCDBVNzRsW-13" value="Товары" style="shape=process;whiteSpace=wrap;html=1;backgroundOutline=1;" vertex="1" parent="1">
          <mxGeometry x="130" y="390" width="120" height="40" as="geometry" />
        </mxCell>
        <mxCell id="CC6myMeuV3GCDBVNzRsW-17" style="edgeStyle=orthogonalEdgeStyle;rounded=0;orthogonalLoop=1;jettySize=auto;html=1;entryX=0.5;entryY=1;entryDx=0;entryDy=0;startArrow=classic;startFill=1;" edge="1" parent="1" source="CC6myMeuV3GCDBVNzRsW-15" target="CC6myMeuV3GCDBVNzRsW-13">
          <mxGeometry relative="1" as="geometry" />
        </mxCell>
        <mxCell id="CC6myMeuV3GCDBVNzRsW-15" value="Управление товарами" style="rounded=1;whiteSpace=wrap;html=1;" vertex="1" parent="1">
          <mxGeometry x="130" y="500" width="120" height="60" as="geometry" />
        </mxCell>
        <mxCell id="CC6myMeuV3GCDBVNzRsW-18" style="edgeStyle=orthogonalEdgeStyle;rounded=0;orthogonalLoop=1;jettySize=auto;html=1;entryX=0.5;entryY=1;entryDx=0;entryDy=0;" edge="1" parent="1" source="CC6myMeuV3GCDBVNzRsW-16" target="CC6myMeuV3GCDBVNzRsW-15">
          <mxGeometry relative="1" as="geometry" />
        </mxCell>
        <mxCell id="CC6myMeuV3GCDBVNzRsW-16" value="Администратор" style="whiteSpace=wrap;html=1;" vertex="1" parent="1">
          <mxGeometry x="130" y="610" width="120" height="60" as="geometry" />
        </mxCell>
        <mxCell id="CC6myMeuV3GCDBVNzRsW-24" style="edgeStyle=orthogonalEdgeStyle;rounded=0;orthogonalLoop=1;jettySize=auto;html=1;entryX=0.5;entryY=0;entryDx=0;entryDy=0;" edge="1" parent="1" source="CC6myMeuV3GCDBVNzRsW-19" target="CC6myMeuV3GCDBVNzRsW-23">
          <mxGeometry relative="1" as="geometry" />
        </mxCell>
        <mxCell id="CC6myMeuV3GCDBVNzRsW-25" value="Товар" style="edgeLabel;html=1;align=center;verticalAlign=middle;resizable=0;points=[];" vertex="1" connectable="0" parent="CC6myMeuV3GCDBVNzRsW-24">
          <mxGeometry x="0.04" y="-2" relative="1" as="geometry">
            <mxPoint as="offset" />
          </mxGeometry>
        </mxCell>
        <mxCell id="CC6myMeuV3GCDBVNzRsW-19" value="Добавление товара в корзину" style="rounded=1;whiteSpace=wrap;html=1;" vertex="1" parent="1">
          <mxGeometry x="350" y="500" width="120" height="60" as="geometry" />
        </mxCell>
        <mxCell id="CC6myMeuV3GCDBVNzRsW-27" style="edgeStyle=orthogonalEdgeStyle;rounded=0;orthogonalLoop=1;jettySize=auto;html=1;entryX=0.5;entryY=0;entryDx=0;entryDy=0;" edge="1" parent="1" source="CC6myMeuV3GCDBVNzRsW-23" target="CC6myMeuV3GCDBVNzRsW-26">
          <mxGeometry relative="1" as="geometry" />
        </mxCell>
        <mxCell id="CC6myMeuV3GCDBVNzRsW-28" value="Товары" style="edgeLabel;html=1;align=center;verticalAlign=middle;resizable=0;points=[];" vertex="1" connectable="0" parent="CC6myMeuV3GCDBVNzRsW-27">
          <mxGeometry x="0.1" y="-1" relative="1" as="geometry">
            <mxPoint y="-6" as="offset" />
          </mxGeometry>
        </mxCell>
        <mxCell id="CC6myMeuV3GCDBVNzRsW-23" value="Корзина" style="whiteSpace=wrap;html=1;" vertex="1" parent="1">
          <mxGeometry x="350" y="610" width="120" height="60" as="geometry" />
        </mxCell>
        <mxCell id="CC6myMeuV3GCDBVNzRsW-32" style="edgeStyle=orthogonalEdgeStyle;rounded=0;orthogonalLoop=1;jettySize=auto;html=1;entryX=0.5;entryY=0;entryDx=0;entryDy=0;exitX=0.5;exitY=1;exitDx=0;exitDy=0;" edge="1" parent="1" source="CC6myMeuV3GCDBVNzRsW-26" target="CC6myMeuV3GCDBVNzRsW-31">
          <mxGeometry relative="1" as="geometry" />
        </mxCell>
        <mxCell id="CC6myMeuV3GCDBVNzRsW-33" value="Заказ" style="edgeLabel;html=1;align=center;verticalAlign=middle;resizable=0;points=[];" vertex="1" connectable="0" parent="CC6myMeuV3GCDBVNzRsW-32">
          <mxGeometry x="-0.1667" y="-2" relative="1" as="geometry">
            <mxPoint as="offset" />
          </mxGeometry>
        </mxCell>
        <mxCell id="CC6myMeuV3GCDBVNzRsW-26" value="Заказ" style="whiteSpace=wrap;html=1;" vertex="1" parent="1">
          <mxGeometry x="350" y="730" width="120" height="60" as="geometry" />
        </mxCell>
        <mxCell id="CC6myMeuV3GCDBVNzRsW-30" style="edgeStyle=orthogonalEdgeStyle;rounded=0;orthogonalLoop=1;jettySize=auto;html=1;entryX=1;entryY=0.5;entryDx=0;entryDy=0;startArrow=classic;startFill=1;" edge="1" parent="1" source="CC6myMeuV3GCDBVNzRsW-29" target="CC6myMeuV3GCDBVNzRsW-26">
          <mxGeometry relative="1" as="geometry" />
        </mxCell>
        <mxCell id="CC6myMeuV3GCDBVNzRsW-29" value="Товары" style="shape=process;whiteSpace=wrap;html=1;backgroundOutline=1;" vertex="1" parent="1">
          <mxGeometry x="550" y="740" width="120" height="40" as="geometry" />
        </mxCell>
        <mxCell id="CC6myMeuV3GCDBVNzRsW-31" value="Заказы" style="shape=process;whiteSpace=wrap;html=1;backgroundOutline=1;" vertex="1" parent="1">
          <mxGeometry x="350" y="850" width="120" height="40" as="geometry" />
        </mxCell>
      </root>
    </mxGraphModel>
  </diagram>
</mxfile>
